<svg width="20" height="20" viewBox="0 0 20 20" fill="none" xmlns="http://www.w3.org/2000/svg">
<path fill-rule="evenodd" clip-rule="evenodd" d="M4.49998 3.4706H15.5V2.52942H4.49998V3.4706ZM1.99998 4.96951H1.40723L1.54166 5.54682L4.04166 16.2832L4.12638 16.6471H4.49998H15.5H15.8736L15.9583 16.2832L18.4583 5.54682L18.5927 4.96951H18H1.99998ZM4.87358 15.7059L2.59274 5.91068H17.4072L15.1264 15.7059H4.87358ZM12.353 11.0001C12.353 12.2996 11.2995 13.353 10 13.353C8.70054 13.353 7.64709 12.2996 7.64709 11.0001C7.64709 9.70056 8.70054 8.64712 10 8.64712C11.2995 8.64712 12.353 9.70056 12.353 11.0001ZM13.2941 11.0001C13.2941 12.8193 11.8193 14.2942 10 14.2942C8.18074 14.2942 6.70591 12.8193 6.70591 11.0001C6.70591 9.18077 8.18074 7.70594 10 7.70594C11.8193 7.70594 13.2941 9.18077 13.2941 11.0001Z" fill="white"/>
</svg>
