<svg width="20" height="20" viewBox="0 0 20 20" fill="none" xmlns="http://www.w3.org/2000/svg">
<path fill-rule="evenodd" clip-rule="evenodd" d="M16 3V3.66286V11.6629C16 13.0436 14.8807 14.1629 13.5 14.1629C12.1193 14.1629 11 13.0436 11 11.6629C11 10.2822 12.1193 9.16287 13.5 9.16287C14.0628 9.16287 14.5822 9.34884 15 9.66268V4.32573L9 6.04002V13.6629C9 15.0436 7.88071 16.1629 6.5 16.1629C5.11929 16.1629 4 15.0436 4 13.6629C4 12.2822 5.11929 11.1629 6.5 11.1629C7.0628 11.1629 7.58217 11.3488 8 11.6627V5.66286V5.28571L8.36264 5.1821L15.3626 3.1821L16 3ZM15 11.6629C15 10.8344 14.3284 10.1629 13.5 10.1629C12.6716 10.1629 12 10.8344 12 11.6629C12 12.4913 12.6716 13.1629 13.5 13.1629C14.3284 13.1629 15 12.4913 15 11.6629ZM6.5 12.1629C7.32843 12.1629 8 12.8344 8 13.6629C8 14.4913 7.32843 15.1629 6.5 15.1629C5.67157 15.1629 5 14.4913 5 13.6629C5 12.8344 5.67157 12.1629 6.5 12.1629Z" fill="#ABABAB"/>
</svg>
