<svg width="20" height="20" viewBox="0 0 20 20" fill="none" xmlns="http://www.w3.org/2000/svg">
<path fill-rule="evenodd" clip-rule="evenodd" d="M10.5 4V4.90212V14.4021V15.2111L9.77639 14.8493L5.88197 12.9021H3.5H3V12.4021V7.40212V6.90212H3.5H5.8566L9.735 4.47812L10.5 4ZM9.5 5.80425L6.265 7.82612L6.1434 7.90212H6H4V11.9021H6H6.11803L6.22361 11.9549L9.5 13.5931V5.80425ZM11.9412 6.37271C12.1036 6.21028 12.367 6.21028 12.5294 6.37271C14.4787 8.32195 14.4787 11.4823 12.5294 13.4315C12.367 13.594 12.1036 13.594 11.9412 13.4315C11.7787 13.2691 11.7787 13.0057 11.9412 12.8433C13.5655 11.2189 13.5655 8.58531 11.9412 6.96095C11.7787 6.79851 11.7787 6.53515 11.9412 6.37271ZM14.2941 4.60801C14.1317 4.44557 13.8683 4.44557 13.7059 4.60801C13.5434 4.77044 13.5434 5.0338 13.7059 5.19624C16.3049 7.79523 16.3049 12.009 13.7059 14.608C13.5434 14.7704 13.5434 15.0338 13.7059 15.1962C13.8683 15.3587 14.1317 15.3587 14.2941 15.1962C17.218 12.2724 17.218 7.53187 14.2941 4.60801Z" fill="#ABABAB"/>
</svg>
